<mxfile host="app.diagrams.net" agent="Mozilla/5.0 (Windows NT 10.0; Win64; x64) AppleWebKit/537.36 (KHTML, like Gecko) Chrome/137.0.0.0 Safari/537.36" version="27.1.3">
  <diagram name="Page-1" id="Fy1r2IXZ9v4l79hZBatR">
    <mxGraphModel dx="983" dy="512" grid="1" gridSize="10" guides="1" tooltips="1" connect="1" arrows="1" fold="1" page="1" pageScale="1" pageWidth="850" pageHeight="1100" math="0" shadow="0">
      <root>
        <mxCell id="0" />
        <mxCell id="1" parent="0" />
        <mxCell id="v3ATiPwjfi1gJON-RTef-1" value="" style="rounded=0;whiteSpace=wrap;html=1;" vertex="1" parent="1">
          <mxGeometry x="200" y="440" width="210" height="60" as="geometry" />
        </mxCell>
        <mxCell id="v3ATiPwjfi1gJON-RTef-4" style="edgeStyle=orthogonalEdgeStyle;rounded=0;orthogonalLoop=1;jettySize=auto;html=1;entryX=0.5;entryY=0;entryDx=0;entryDy=0;" edge="1" parent="1" source="v3ATiPwjfi1gJON-RTef-2" target="v3ATiPwjfi1gJON-RTef-3">
          <mxGeometry relative="1" as="geometry" />
        </mxCell>
        <mxCell id="v3ATiPwjfi1gJON-RTef-2" value="Start:&lt;div&gt;Download the Course Fee Listing Report from Banner&lt;/div&gt;" style="shape=hexagon;perimeter=hexagonPerimeter2;whiteSpace=wrap;html=1;fixedSize=1;" vertex="1" parent="1">
          <mxGeometry x="325" width="215" height="80" as="geometry" />
        </mxCell>
        <mxCell id="v3ATiPwjfi1gJON-RTef-6" style="edgeStyle=orthogonalEdgeStyle;rounded=0;orthogonalLoop=1;jettySize=auto;html=1;entryX=0.5;entryY=0;entryDx=0;entryDy=0;" edge="1" parent="1" source="v3ATiPwjfi1gJON-RTef-3" target="v3ATiPwjfi1gJON-RTef-5">
          <mxGeometry relative="1" as="geometry" />
        </mxCell>
        <mxCell id="v3ATiPwjfi1gJON-RTef-3" value="Open the most Current version of the Specific Fees List From SharePoint" style="shape=hexagon;perimeter=hexagonPerimeter2;whiteSpace=wrap;html=1;fixedSize=1;" vertex="1" parent="1">
          <mxGeometry x="325" y="140" width="217" height="80" as="geometry" />
        </mxCell>
        <mxCell id="v3ATiPwjfi1gJON-RTef-5" value="Review the CRN&#39;s Subject,&amp;nbsp;&lt;div&gt;Section, and Campus from&amp;nbsp;&lt;/div&gt;&lt;div&gt;the Course Fee Listing Download&amp;nbsp;&lt;/div&gt;&lt;div&gt;against the Specific Fees list&lt;/div&gt;" style="shape=hexagon;perimeter=hexagonPerimeter2;whiteSpace=wrap;html=1;fixedSize=1;" vertex="1" parent="1">
          <mxGeometry x="318.5" y="260" width="230" height="80" as="geometry" />
        </mxCell>
      </root>
    </mxGraphModel>
  </diagram>
</mxfile>
